<svg width="26" height="26" viewBox="0 0 26 26" fill="none" xmlns="http://www.w3.org/2000/svg">
<g id="gridicons:play">
<path id="Vector" d="M12.9998 2.16602C10.8572 2.16602 8.7627 2.80138 6.98116 3.99176C5.19963 5.18214 3.8111 6.87408 2.99115 8.85361C2.1712 10.8331 1.95666 13.0114 2.37467 15.1128C2.79267 17.2143 3.82445 19.1446 5.33952 20.6597C6.85459 22.1747 8.7849 23.2065 10.8864 23.6245C12.9878 24.0425 15.166 23.828 17.1456 23.008C19.1251 22.1881 20.817 20.7996 22.0074 19.018C23.1978 17.2365 23.8332 15.142 23.8332 12.9993C23.8332 11.5767 23.553 10.168 23.0085 8.85361C22.4641 7.53925 21.6661 6.34499 20.6602 5.33903C19.6542 4.33306 18.4599 3.53508 17.1456 2.99065C15.8312 2.44623 14.4225 2.16602 12.9998 2.16602ZM10.8332 17.8743V8.12435L17.3332 12.9993L10.8332 17.8743Z" fill="#850000"/>
</g>
</svg>
