<svg width="8" height="15" viewBox="0 0 8 15" fill="none" xmlns="http://www.w3.org/2000/svg">
<g id="arrow-right">
<path id="Vector" d="M6.79219 -0.000167388C6.95657 -0.000167374 7.12096 0.0603948 7.25074 0.190173C7.50164 0.441077 7.50164 0.856368 7.25074 1.10727L1.60972 6.74828C1.19443 7.16357 1.19443 7.83842 1.60972 8.25371L7.25074 13.8947C7.50164 14.1456 7.50164 14.5609 7.25074 14.8118C6.99983 15.0627 6.58454 15.0627 6.33364 14.8118L0.692622 9.17081C0.251378 8.72956 0.000473386 8.13258 0.000473441 7.501C0.000473497 6.86941 0.242726 6.27243 0.692623 5.83119L6.33364 0.190173C6.46342 0.0690474 6.6278 -0.000167402 6.79219 -0.000167388Z" fill="white" fill-opacity="0.32"/>
</g>
</svg>
