<svg width="284" height="284" viewBox="0 0 284 284" fill="none" xmlns="http://www.w3.org/2000/svg">
<g id="Group 1422568175">
<path id="Ellipse 7" d="M284 142C284 220.424 220.424 284 142 284C63.5756 284 0 220.424 0 142C0 63.5756 63.5756 0 142 0C220.424 0 284 63.5756 284 142ZM19.1586 142C19.1586 209.843 74.1566 264.841 142 264.841C209.843 264.841 264.841 209.843 264.841 142C264.841 74.1566 209.843 19.1586 142 19.1586C74.1566 19.1586 19.1586 74.1566 19.1586 142Z" fill="#1877F2"/>
<path id="Vector" fill-rule="evenodd" clip-rule="evenodd" d="M184 142C184 165.196 165.196 184 142 184C118.804 184 100 165.196 100 142C100 118.804 118.804 100 142 100C165.196 100 184 118.804 184 142ZM134.662 149.108L129.527 143.973C128.297 142.743 126.303 142.743 125.073 143.973C123.842 145.203 123.842 147.198 125.073 148.428L133.473 156.828C134.221 157.577 135.296 157.899 136.333 157.686C137.371 157.474 138.231 156.754 138.625 155.771C142.643 145.726 147.604 139.839 151.424 136.496C153.341 134.819 154.99 133.766 156.118 133.145C156.682 132.835 157.117 132.632 157.391 132.514C157.528 132.455 157.624 132.417 157.676 132.397L157.718 132.382C159.353 131.823 160.236 130.047 159.688 128.405C159.138 126.754 157.354 125.862 155.704 126.412L155.696 126.415L155.687 126.418L155.664 126.426L155.606 126.446C155.561 126.462 155.505 126.483 155.436 126.509C155.3 126.561 155.117 126.634 154.894 126.73C154.445 126.924 153.83 127.214 153.082 127.625C151.585 128.448 149.559 129.758 147.276 131.755C143.332 135.206 138.677 140.663 134.662 149.108Z" fill="#1877F2"/>
</g>
</svg>
