<svg width="695" height="114" viewBox="0 0 695 114" fill="none" xmlns="http://www.w3.org/2000/svg">
<g id="Rectangle 120" filter="url(#filter0_d_1265_1458)">
<path d="M4 12C4 6.47715 8.47715 2 14 2H681C686.523 2 691 6.47715 691 12V98C691 103.523 686.523 108 681 108H14C8.47716 108 4 103.523 4 98V12Z" fill="#F3E6E6"/>
<path d="M14 2.5H681C686.247 2.5 690.5 6.7533 690.5 12V98C690.5 103.247 686.247 107.5 681 107.5H14C8.7533 107.5 4.5 103.247 4.5 98V12C4.5 6.75329 8.7533 2.5 14 2.5Z" stroke="#F9F4F5"/>
</g>
<defs>
<filter id="filter0_d_1265_1458" x="0" y="0" width="695" height="114" filterUnits="userSpaceOnUse" color-interpolation-filters="sRGB">
<feFlood flood-opacity="0" result="BackgroundImageFix"/>
<feColorMatrix in="SourceAlpha" type="matrix" values="0 0 0 0 0 0 0 0 0 0 0 0 0 0 0 0 0 0 127 0" result="hardAlpha"/>
<feOffset dy="2"/>
<feGaussianBlur stdDeviation="2"/>
<feComposite in2="hardAlpha" operator="out"/>
<feColorMatrix type="matrix" values="0 0 0 0 0 0 0 0 0 0 0 0 0 0 0 0 0 0 0.1 0"/>
<feBlend mode="normal" in2="BackgroundImageFix" result="effect1_dropShadow_1265_1458"/>
<feBlend mode="normal" in="SourceGraphic" in2="effect1_dropShadow_1265_1458" result="shape"/>
</filter>
</defs>
</svg>
