<svg width="558" height="85" viewBox="0 0 558 85" fill="none" xmlns="http://www.w3.org/2000/svg">
<g id="Rectangle 120" filter="url(#filter0_d_1265_1455)">
<path d="M4 12C4 6.47715 8.47715 2 14 2H544C549.523 2 554 6.47715 554 12V69C554 74.5229 549.523 79 544 79H14C8.47714 79 4 74.5229 4 69V12Z" fill="#F3E6E6"/>
<path d="M14 2.5H544C549.247 2.5 553.5 6.75329 553.5 12V69C553.5 74.2467 549.247 78.5 544 78.5H14C8.7533 78.5 4.5 74.2467 4.5 69V12C4.5 6.7533 8.7533 2.5 14 2.5Z" stroke="#F9F4F5"/>
</g>
<defs>
<filter id="filter0_d_1265_1455" x="0" y="0" width="558" height="85" filterUnits="userSpaceOnUse" color-interpolation-filters="sRGB">
<feFlood flood-opacity="0" result="BackgroundImageFix"/>
<feColorMatrix in="SourceAlpha" type="matrix" values="0 0 0 0 0 0 0 0 0 0 0 0 0 0 0 0 0 0 127 0" result="hardAlpha"/>
<feOffset dy="2"/>
<feGaussianBlur stdDeviation="2"/>
<feComposite in2="hardAlpha" operator="out"/>
<feColorMatrix type="matrix" values="0 0 0 0 0 0 0 0 0 0 0 0 0 0 0 0 0 0 0.1 0"/>
<feBlend mode="normal" in2="BackgroundImageFix" result="effect1_dropShadow_1265_1455"/>
<feBlend mode="normal" in="SourceGraphic" in2="effect1_dropShadow_1265_1455" result="shape"/>
</filter>
</defs>
</svg>
