<svg width="20" height="20" viewBox="0 0 20 20" fill="none" xmlns="http://www.w3.org/2000/svg">
<g id="gridicons:play">
<path id="Vector" d="M9.99984 1.66406C8.35166 1.66406 6.7405 2.1528 5.37009 3.06848C3.99968 3.98416 2.93158 5.28565 2.30084 6.80837C1.67011 8.33108 1.50509 10.0066 1.82663 11.6231C2.14817 13.2397 2.94185 14.7245 4.10728 15.89C5.27272 17.0554 6.75758 17.8491 8.37409 18.1706C9.9906 18.4922 11.6662 18.3271 13.1889 17.6964C14.7116 17.0657 16.0131 15.9976 16.9288 14.6271C17.8444 13.2567 18.3332 11.6456 18.3332 9.9974C18.3332 8.90305 18.1176 7.81941 17.6988 6.80837C17.28 5.79732 16.6662 4.87866 15.8924 4.10484C15.1186 3.33102 14.1999 2.71719 13.1889 2.2984C12.1778 1.87961 11.0942 1.66406 9.99984 1.66406ZM8.33317 13.7474V6.2474L13.3332 9.9974L8.33317 13.7474Z" fill="white"/>
</g>
</svg>
