<svg width="255" height="88" viewBox="0 0 255 88" fill="none" xmlns="http://www.w3.org/2000/svg">
<g id="Rectangle 120" filter="url(#filter0_d_1331_1098)">
<path d="M4 12C4 6.47715 8.47715 2 14 2H241C246.523 2 251 6.47715 251 12V72C251 77.5229 246.523 82 241 82H14C8.47716 82 4 77.5229 4 72V12Z" fill="#F3E6E6"/>
<path d="M14 2.5H241C246.247 2.5 250.5 6.7533 250.5 12V72C250.5 77.2467 246.247 81.5 241 81.5H14C8.7533 81.5 4.5 77.2467 4.5 72V12C4.5 6.7533 8.75329 2.5 14 2.5Z" stroke="#F9F4F5"/>
</g>
<defs>
<filter id="filter0_d_1331_1098" x="0" y="0" width="255" height="88" filterUnits="userSpaceOnUse" color-interpolation-filters="sRGB">
<feFlood flood-opacity="0" result="BackgroundImageFix"/>
<feColorMatrix in="SourceAlpha" type="matrix" values="0 0 0 0 0 0 0 0 0 0 0 0 0 0 0 0 0 0 127 0" result="hardAlpha"/>
<feOffset dy="2"/>
<feGaussianBlur stdDeviation="2"/>
<feComposite in2="hardAlpha" operator="out"/>
<feColorMatrix type="matrix" values="0 0 0 0 0 0 0 0 0 0 0 0 0 0 0 0 0 0 0.1 0"/>
<feBlend mode="normal" in2="BackgroundImageFix" result="effect1_dropShadow_1331_1098"/>
<feBlend mode="normal" in="SourceGraphic" in2="effect1_dropShadow_1331_1098" result="shape"/>
</filter>
</defs>
</svg>
