<svg width="277" height="85" viewBox="0 0 277 85" fill="none" xmlns="http://www.w3.org/2000/svg">
<g id="Rectangle 120" filter="url(#filter0_d_1331_1088)">
<path d="M4 12C4 6.47715 8.47715 2 14 2H263C268.523 2 273 6.47715 273 12V69C273 74.5229 268.523 79 263 79H14C8.47715 79 4 74.5229 4 69V12Z" fill="#F3E6E6"/>
<path d="M14 2.5H263C268.247 2.5 272.5 6.75329 272.5 12V69C272.5 74.2467 268.247 78.5 263 78.5H14C8.7533 78.5 4.5 74.2467 4.5 69V12C4.5 6.7533 8.7533 2.5 14 2.5Z" stroke="#F9F4F5"/>
</g>
<defs>
<filter id="filter0_d_1331_1088" x="0" y="0" width="277" height="85" filterUnits="userSpaceOnUse" color-interpolation-filters="sRGB">
<feFlood flood-opacity="0" result="BackgroundImageFix"/>
<feColorMatrix in="SourceAlpha" type="matrix" values="0 0 0 0 0 0 0 0 0 0 0 0 0 0 0 0 0 0 127 0" result="hardAlpha"/>
<feOffset dy="2"/>
<feGaussianBlur stdDeviation="2"/>
<feComposite in2="hardAlpha" operator="out"/>
<feColorMatrix type="matrix" values="0 0 0 0 0 0 0 0 0 0 0 0 0 0 0 0 0 0 0.1 0"/>
<feBlend mode="normal" in2="BackgroundImageFix" result="effect1_dropShadow_1331_1088"/>
<feBlend mode="normal" in="SourceGraphic" in2="effect1_dropShadow_1331_1088" result="shape"/>
</filter>
</defs>
</svg>
